<?xml version="1.0" encoding="UTF-8" standalone="no"?>
<svg
   xmlns:dc="http://purl.org/dc/elements/1.1/"
   xmlns:cc="http://creativecommons.org/ns#"
   xmlns:rdf="http://www.w3.org/1999/02/22-rdf-syntax-ns#"
   xmlns:svg="http://www.w3.org/2000/svg"
   xmlns="http://www.w3.org/2000/svg"
   xmlns:xlink="http://www.w3.org/1999/xlink"
   id="svg2363"
   version="1.1"
   viewBox="0 0 135.46666 135.46667"
   height="175"
   width="200">
  <defs
     id="defs2357">
    <linearGradient
       id="linearGradient3027">
      <stop
         style="stop-color:#147eff;stop-opacity:1"
         offset="0"
         id="stop3023" />
      <stop
         style="stop-color:#60efff;stop-opacity:1"
         offset="1"
         id="stop3025" />
    </linearGradient>
    <linearGradient
       id="linearGradient3021">
      <stop
         style="stop-color:#147fff;stop-opacity:1"
         offset="0"
         id="stop3017" />
      <stop
         style="stop-color:#60efff;stop-opacity:1"
         offset="1"
         id="stop3019" />
    </linearGradient>
    <linearGradient
       y2="197.89648"
       x2="450.80701"
       y1="197.89648"
       x1="182.68018"
       gradientUnits="userSpaceOnUse"
       id="linearGradient2263"
       xlink:href="#linearGradient3027" />
    <linearGradient
       id="linearGradient2123">
      <stop
         id="stop2119"
         offset="0"
         style="stop-color:#0061ff;stop-opacity:1" />
      <stop
         id="stop2121"
         offset="1"
         style="stop-color:#60efff;stop-opacity:1" />
    </linearGradient>
    <linearGradient
       y2="156.39822"
       x2="386.5816"
       y1="156.39822"
       x1="318.26541"
       gradientUnits="userSpaceOnUse"
       id="linearGradient2265"
       xlink:href="#linearGradient2123" />
    <linearGradient
       y2="213.6543"
       x2="308.49219"
       y1="213.6543"
       x1="288.49609"
       gradientUnits="userSpaceOnUse"
       id="linearGradient2268"
       xlink:href="#linearGradient2123" />
    <linearGradient
       y2="228.66406"
       x2="266.99609"
       y1="228.66406"
       x1="240.49609"
       gradientUnits="userSpaceOnUse"
       id="linearGradient2270"
       xlink:href="#linearGradient2123" />
    <linearGradient
       y2="273.87109"
       x2="263.74609"
       y1="273.87109"
       x1="236.99609"
       gradientUnits="userSpaceOnUse"
       id="linearGradient2272"
       xlink:href="#linearGradient2123" />
    <linearGradient
       y2="259.13522"
       x2="512.49225"
       y1="259.13522"
       x1="0.50058514"
       gradientUnits="userSpaceOnUse"
       id="linearGradient2274"
       xlink:href="#linearGradient3021" />
    <linearGradient
       gradientUnits="userSpaceOnUse"
       y2="11772.783"
       x2="10339.072"
       y1="12261.434"
       x1="9997.3301"
       id="linearGradient2294"
       xlink:href="#linearGradient2292"
       gradientTransform="matrix(0.26458333,0,0,0.26458333,-2628.3221,-2950.2599)" />
    <linearGradient
       id="linearGradient2292">
      <stop
         id="stop2288"
         offset="0"
         style="stop-color:#0061ff;stop-opacity:1" />
      <stop
         id="stop2290"
         offset="1"
         style="stop-color:#60efff;stop-opacity:1" />
    </linearGradient>
  </defs>
  <metadata
     id="metadata2360">
    <rdf:RDF>
      <cc:Work
         rdf:about="">
        <dc:format>image/svg+xml</dc:format>
        <dc:type
           rdf:resource="http://purl.org/dc/dcmitype/StillImage" />
        <dc:title></dc:title>
      </cc:Work>
    </rdf:RDF>
  </metadata>
  <g
     transform="translate(0,-161.53332)"
     id="layer1">
    <g
       style="stroke-width:3.92279339"
       transform="matrix(0,-0.08975496,-0.08975496,0,118.30235,293.95604)"
       id="g2257">
      <path
         id="path2243"
         d="m 190.80975,257.21299 15.52543,-40.56618 36.96267,-42.0531 33.15172,-35.07303 50.08205,-44.071988 41.06696,-20.032642 41.06696,3.005029 27.04438,25.040731 1.00167,37.06055 -12.01982,29.04743 -31.05079,26.0427 -28.04575,21.03432 -25.04073,26.0424 -18.02959,26.0427 -19.03096,28.04576 -28.04576,17.02791 -42.06893,9.01479 -24.03905,-13.0215 -17.02791,-30.04911 z"
         style="fill:#fef5b4;fill-opacity:1;stroke:none;stroke-width:2.94784069px;stroke-linecap:butt;stroke-linejoin:miter;stroke-opacity:1" />
      <path
         style="fill:url(#linearGradient2263);fill-opacity:1;stroke-width:3.92279339"
         d="m 235.78516,165.07812 c -16.10157,19.22657 -30.66407,39.89454 -43.28516,61.4336 -9.63672,16.44922 -12.28906,35.66406 -7.47656,54.10937 4.8164,18.44532 16.52734,33.91016 32.97265,43.54688 10.95313,6.41406 23.39454,9.80859 35.98438,9.80859 25.28125,0 48.91406,-13.52734 61.67187,-35.30469 24.9961,-42.65625 60.2461,-78.96093 101.94532,-104.98437 26.90234,-16.78906 39.34765,-49.92969 30.26562,-80.59375 -6.40625,-21.613281 -22.17578,-38.597656 -43.27344,-46.605469 -8.17187,-3.101562 -16.6875,-4.671875 -25.30078,-4.671875 -13.11719,0 -25.99609,3.703125 -37.23828,10.71875 -16.99219,10.59375 -33.47656,22.511719 -48.99219,35.425784 -20.3306,17.7996 -38.53642,36.48453 -57.27343,57.11718 z m 70.0664,-41.74609 C 320.67188,111 336.41016,99.617188 352.62891,89.503906 c 8.07031,-5.03125 17.28906,-7.6875 26.66015,-7.6875 6.17969,0 12.3086,1.132813 18.20703,3.371094 15.20704,5.773438 26.57813,18.01563 31.19141,33.58984 6.53906,22.07032 -2.375,45.89844 -21.67578,57.94532 -44.43359,27.72656 -81.99219,66.40234 -108.61328,111.83593 -9.1875,15.67969 -26.20313,25.41797 -44.41797,25.41797 -9.03906,0 -17.98438,-2.44531 -25.87109,-7.0664 -11.83985,-6.9375 -20.26563,-18.06641 -23.73438,-31.34375 -3.46484,-13.27344 -1.55469,-27.10547 5.38281,-38.94532 12.0586,-20.57812 25.97266,-40.32812 41.35938,-58.69922 7.43842,-9.90048 47.30499,-49.64206 54.73437,-54.58984 z"
         id="path2245" />
      <path
         style="fill:url(#linearGradient2265);fill-opacity:1;stroke-width:3.92279339"
         d="m 352.32031,190.5625 c 9.04688,-0.23438 17.58594,-3.95703 24.04297,-10.48438 13.44531,-13.58984 13.64844,-35.26562 0.45313,-48.32421 -6.44922,-6.37891 -15.08204,-9.76172 -24.27344,-9.51953 -9.04688,0.23437 -17.58203,3.95703 -24.04297,10.48437 -6.45703,6.52734 -10.08984,15.10547 -10.23047,24.15234 -0.14062,9.20703 3.33203,17.78907 9.78125,24.16797 6.23438,6.16797 14.5,9.53516 23.35938,9.53516 0.30078,0 0.60547,-0.004 0.91015,-0.0117 z m -14.05078,-33.38281 c 0.0586,-3.86328 1.64063,-7.55469 4.44922,-10.39453 2.8125,-2.83985 6.48438,-4.46094 10.34766,-4.5625 0.125,-0.004 0.25,-0.004 0.375,-0.004 3.5625,0 6.85547,1.32422 9.30859,3.75 5.35547,5.30078 5.08594,14.29297 -0.60156,20.03906 -2.8086,2.83985 -6.48438,4.46094 -10.34375,4.5625 -3.72266,0.0898 -7.14844,-1.23437 -9.6875,-3.75 -2.53907,-2.51172 -3.90625,-5.93359 -3.84766,-9.64062 z m 0,0"
         id="path2247" />
      <path
         style="fill:url(#linearGradient2268);fill-opacity:1;stroke-width:3.92279339"
         d="m 298.49219,230.10156 c 5.52343,0 10,-4.47656 10,-10 v -12.89453 c 0,-5.51953 -4.47657,-10 -10,-10 -5.51953,0 -9.9961,4.48047 -9.9961,10 v 12.89453 c 0,5.52344 4.47657,10 9.9961,10 z m 0,0"
         id="path2249" />
      <path
         style="fill:url(#linearGradient2270);fill-opacity:1;stroke-width:3.92279339"
         d="m 240.49609,228.66406 c 0,5.52344 4.47657,10 10,10 h 6.5 c 5.52344,0 10,-4.47656 10,-10 0,-5.51953 -4.47656,-10 -10,-10 h -6.5 c -5.52343,0 -10,4.47656 -10,10 z m 0,0"
         id="path2251" />
      <path
         style="fill:url(#linearGradient2272);fill-opacity:1;stroke-width:3.92279339"
         d="m 239.92578,263.42578 c -3.90625,3.90234 -3.90625,10.23438 0,14.14063 l 6.75,6.75 c 1.95313,1.95312 4.51172,2.92968 7.07031,2.92968 2.5586,0 5.11719,-0.97656 7.07032,-2.92968 3.90625,-3.90235 3.90625,-10.23438 0,-14.14063 l -6.75,-6.75 c -3.90625,-3.90625 -10.23829,-3.90625 -14.14063,0 z m 0,0"
         id="path2253" />
      <path
         style="fill:url(#linearGradient2274);fill-opacity:1;stroke-width:3.92279339"
         d="m 502.48828,122.22266 h -12.26953 c -0.6875,-6.85547 -1.99609,-13.71485 -4.00391,-20.49219 -2.30468,-7.781251 -5.39843,-15.171876 -9.18359,-22.101564 l 14.53906,-6.5 c 5.04297,-2.253906 7.30078,-8.167968 5.04688,-13.210937 -2.25,-5.039063 -8.16407,-7.300781 -13.20703,-5.046875 l -17.69922,7.914062 C 455.01172,49.664062 441.33984,39.082031 425.48047,31.886719 l 8.90625,-17.3125 c 2.52344,-4.910157 0.58984,-10.9375 -4.32031,-13.464844 -4.91407,-2.527344 -10.94141,-0.59375 -13.46875,4.320313 l -10.16407,19.761718 c -20.36718,-5.171875 -41.4375,-4.433594 -61.11718,1.992188 L 337.1875,11.148438 C 334.6875,6.222656 328.67187,4.25 323.74609,6.75 c -4.92578,2.496094 -6.89453,8.515625 -4.39843,13.441406 l 7.55859,14.90625 c -2.03125,1.097656 -4.03906,2.257813 -6.01953,3.492188 -10.97656,6.84375 -21.66406,14.144531 -32.05469,21.851562 l -7.39062,-12.523437 c -2.8086,-4.753907 -8.9375,-6.335938 -13.69532,-3.527344 -4.7539,2.808594 -6.33593,8.9375 -3.52734,13.695313 l 8.67187,14.691406 c -12.02343,9.71875 -23.57812,20.019531 -34.63281,30.839846 l -9.02344,-9.019534 c -3.90234,-3.902344 -10.23437,-3.902344 -14.14062,0 -3.90625,3.90625 -3.90625,10.238284 0,14.144534 l 9.14453,9.14453 c -11.67187,12.39062 -22.70703,25.39062 -33.05078,38.94531 l -15.06641,-13.32422 c -4.13672,-3.65625 -10.45703,-3.26953 -14.11328,0.86719 -3.66015,4.14062 -3.27344,10.45703 0.86719,14.11719 l 16.46484,14.55859 c -7.55078,10.77734 -14.68359,21.86328 -21.34765,33.23828 -0.60547,1.03125 -1.1836,2.07031 -1.75391,3.11719 L 136.08984,204 c -5.33203,-1.43359 -10.8164,1.73047 -12.25,7.0625 -1.42968,5.33594 1.73438,10.82031 7.06641,12.25 l 17.29687,4.64062 c -6.63281,20.13672 -7.36328,41.76954 -1.8789,62.76954 0.26172,1.01172 0.54297,2.01562 0.83594,3.01562 -15.51172,5.48047 -49.578129,21.15234 -69.617191,57.83203 -7.753907,14.19532 -17.804688,25.89844 -29.871094,34.78125 -4.449219,3.27344 -5.398437,9.53125 -2.125,13.98047 1.960937,2.66406 4.988281,4.07031 8.058594,4.07031 2.058593,0 4.136719,-0.63281 5.921875,-1.94531 14.433594,-10.62891 26.402344,-24.52344 35.566406,-41.30078 17.01172,-31.14063 47.10547,-44.44531 59.35156,-48.74609 3.01953,6.07031 6.57422,11.82812 10.625,17.20703 -18.72656,12.28125 -57.39062,42.94922 -81.269529,98.94922 C 56.5,492.58594 2.2701161,500.04486 0.50058515,499.99799 6.4948184,523.13701 12.018696,520.03663 29.541995,513.6652 c 20.087434,-7.46178 51.325921,-27.2369 72.653315,-77.25117 22.97657,-53.88281 61.6875,-82.36328 76.5586,-91.7539 5.76562,5.26953 12.125,9.97265 19.01953,14.01562 2.89843,1.69531 5.87109,3.25 8.89453,4.67188 -4.41797,12.5039 -17.65625,41.94531 -48.59766,58.84765 -53.29297,29.11328 -60.191404,76.46875 -60.457029,78.46875 -0.734375,5.47266 3.113279,10.50391 8.585939,11.23438 0.44922,0.0625 0.89453,0.0898 1.33594,0.0898 4.93359,0 9.23047,-3.64844 9.89843,-8.67578 0.0547,-0.39063 5.72657,-39.25781 50.22657,-63.56641 36.60937,-20 52.28906,-53.97656 57.80078,-69.52734 7.03515,1.875 14.25,3.0625 21.53515,3.52344 v 10.25 c 0,5.51953 4.47657,10 9.9961,10 5.52343,0 10,-4.48047 10,-10 V 373.1875 c 23.74218,-2.81641 45.91406,-13.23438 63.1914,-29.36328 l 10.90235,10.90625 c 1.95312,1.95312 4.51172,2.92969 7.07031,2.92969 2.55859,0 5.12109,-0.97657 7.07422,-2.92969 3.90234,-3.90625 3.90234,-10.23828 0,-14.14063 l -11.69531,-11.69922 c 2.37109,-3.19531 4.59375,-6.52343 6.6289,-10 5.69531,-9.71875 12.01953,-19.05078 18.87891,-27.94921 l 14.73047,14.65234 c 1.95312,1.94141 4.5039,2.91016 7.05468,2.91016 2.56641,0 5.13282,-0.98047 7.08594,-2.94532 3.89844,-3.91406 3.87891,-10.24609 -0.0351,-14.14453 l -15.98829,-15.90234 c 9.11329,-10.15235 18.98438,-19.60156 29.51563,-28.23047 l 19.75781,16.51172 c 1.8711,1.5664 4.14844,2.32812 6.40625,2.32812 2.86328,0 5.70313,-1.22265 7.67969,-3.58984 3.54297,-4.23438 2.97656,-10.54297 -1.26172,-14.08203 l -16.20312,-13.54297 c 3.60546,-2.51563 7.26171,-4.95703 10.99218,-7.28516 C 449.23052,221.09766 458.28521,213 465.7813,203.78516 l 22.05469,9.12109 c 1.25,0.51562 2.54297,0.76172 3.8164,0.76172 3.92578,0 7.65235,-2.32813 9.2461,-6.1836 2.10937,-5.10156 -0.31641,-10.94921 -5.41797,-13.0625 l -18.35156,-7.58593 c 7.47265,-13.71485 12.05078,-28.92578 13.30859,-44.61719 h 12.05469 c 5.52343,0 10,-4.47656 10,-9.99609 -0.004,-5.52344 -4.48047,-10 -10.00391,-10 z m -74.30078,88.42968 c -7.60156,4.7461 -14.96484,9.86719 -22.08203,15.31641 -0.46094,0.29687 -0.89453,0.64453 -1.30469,1.02344 -15.93359,12.34375 -30.5625,26.39062 -43.59375,41.83593 -0.0352,0.0352 -0.0742,0.0664 -0.11328,0.10157 -0.46094,0.46484 -0.86328,0.96484 -1.21484,1.48828 -9.99219,12.01562 -19.04297,24.83594 -26.96875,38.36328 -16.33594,27.875 -46.57813,45.19141 -78.92579,45.19141 -16.14453,0 -32.08203,-4.33985 -46.09765,-12.55079 -7.59375,-4.44921 -14.38281,-9.88281 -20.26953,-16.10546 l -0.19922,-0.19922 c -10.33594,-10.98828 -17.82813,-24.44141 -21.74219,-39.44531 -6.16797,-23.61329 -2.76562,-48.21485 9.57031,-69.27344 38.31641,-65.38672 92.33594,-121.003909 156.22266,-160.83594 14.64062,-9.128906 31.11719,-13.773438 47.77344,-13.773438 10.89453,0 21.86328,1.984376 32.44531,6 26.98437,10.238282 47.15625,31.972657 55.35156,59.624998 11.62891,39.25 -4.34765,81.70703 -38.85156,103.23828 z"
         id="path2255" />
    </g>
    <path
       id="path2400"
       d="m 27.297067,164.6222 -10.492264,39.27316 h 10.375053 l 1.055159,-4.92389 h 9.144264 l 1.113631,4.92389 H 48.809544 L 37.730646,164.6222 Z m 22.135306,0 v 29.54655 9.72661 h 8.909315 v -9.72661 -10.49655 l 4.16216,20.22316 h 10.081948 l 3.810264,-20.04695 v 20.04695 h 9.378157 V 164.6222 H 74.871531 l -7.502789,25.967 -6.799792,-25.967 z m 47.357771,0 -10.492317,39.27316 h 10.375636 l 1.054629,-4.92389 h 9.143998 l 1.11363,4.92389 h 10.3169 L 107.22399,164.6222 Z m -16.466873,45.00801 v 7.82743 10.8122 H 71.765058 V 209.94797 H 62.128933 35.399931 v 1.52559 8.35554 h 8.382265 v 2.84639 0.1561 11.71549 14.35629 h 10.02321 v -14.61056 -11.52736 -2.93635 h 7.87744 v 17.02726 12.04701 h 10.082212 v -10.28621 h 8.558213 v 10.28621 h 10.081948 v -11.32655 -20.50045 -7.44616 z m -63.518442,45.00774 v 39.27316 H 40.837913 V 283.77016 H 26.9457 v -3.45837 h 10.961158 v -9.96474 H 26.9457 v -5.51021 H 40.837913 V 254.63795 H 26.9457 Z m 35.107748,0 -10.492317,39.27316 h 10.375107 l 1.055158,-4.9239 h 3.450431 5.693834 l 1.113631,4.9239 h 10.316633 l -8.368506,-29.66588 -2.710392,-9.60728 z M 16.804829,209.94797 v 15.0659 23.8895 h 19.929396 v -10.14095 h -9.789054 v -13.74855 -15.0659 z m 15.884711,-32.02014 2.813843,12.77858 h -5.510212 z m 69.4936,0 2.81358,12.77858 h -5.510207 z m -44.87809,90.01575 0.496094,2.2516 2.31775,10.52698 H 57.019829 54.60921 Z"
       style="font-style:normal;font-variant:normal;font-weight:900;font-stretch:normal;font-size:58.61656189px;line-height:0.75;font-family:'Bunya PERSONAL';-inkscape-font-specification:'Bunya PERSONAL Heavy';text-align:center;letter-spacing:0px;word-spacing:0px;text-anchor:middle;fill:url(#linearGradient2294);fill-opacity:1;stroke:none;stroke-width:0.26458332" />
    <path
       id="path3033"
       d="m 79.70903,267.95306 h -9.817798 v 0.027 h -1.952501 c -5.337702,0 -9.6783,4.34069 -9.6783,9.67829 v 7.2589 c 0,1.3356 1.0838,2.4194 2.419499,2.4194 1.3356,0 2.419802,-1.0838 2.419802,-2.4194 v -7.2589 c 0,-2.66639 2.1726,-4.8393 4.838999,-4.8393 h 7.1139 c 0.116599,0 0.230301,-0.011 0.3425,-0.027 h 4.313899 c 3.432802,0 3.496302,-4.8394 0,-4.8394 z"
       style="fill:#fef5b4;fill-opacity:1;stroke-width:5.64444447" />
    <path
       id="path3031"
       d="m 106.47733,243.24726 c 0,0 -2.106,-1.8624 -3.2887,-2.5723 4.8493,-2.9827 8.0904,-7.7019 8.0904,-13.80089 0,-3.78601 -1.2431,-7.38521 -3.532,-10.33851 -0.097,-0.3085 -0.2573,-0.6029 -0.4842,-0.8621 -3.1938,-3.6633 -7.829798,-5.7636 -12.707799,-5.7636 h -7.5194 c 3.1437,-3.0766 5.099899,-7.3622 5.099899,-12.0982 v -24.196 c 0,-1.3356 -1.084299,-2.4199 -2.419799,-2.4199 v 2e-4 c -1.335601,0 -2.419501,1.0843 -2.419501,2.4199 v 24.196 c 0,6.6684 -5.429798,12.0982 -12.0982,12.0982 h -9.6783 -24.196 c -1.3355,0 -2.4198,1.0838 -2.4198,2.4195 0,1.3356 1.0843,2.4194 2.4198,2.4194 h 23.4437 c 0.113202,0.016 0.227901,0.027 0.345601,0.027 h 29.229 c 3.2229,0 6.262199,1.2532 8.551199,3.5471 2.2889,2.2937 3.547,5.3278 3.547,8.5507 0,6.3672 -4.9512,10.9659 -11.203299,11.4262 -0.243001,-0.01 -0.486799,-0.018 -0.731401,-0.018 H 65.276531 c -0.115901,0 -0.228802,0.011 -0.3403,0.027 H 41.32373 c -1.3355,0 -2.4198,1.0838 -2.4198,2.4194 0,1.3357 1.0843,2.4195 2.4198,2.4195 h 6.409999 c 0.113202,0.016 0.227902,0.027 0.345501,0.027 h 46.262801 c 0.314899,0 0.6276,-0.011 0.9383,-0.027 2.932599,0.1845 5.671899,1.4111 7.776299,3.52 2.2603,2.2602 5.964,-0.8779 3.4207,-3.4212 z"
       style="fill:#fef5b4;fill-opacity:1;stroke-width:5.64444447" />
    <path
       id="path2241"
       d="m 70.356829,171.19596 c -1.335698,0 -2.419897,1.0843 -2.419897,2.4199 v 16.9371 c 0,2.6665 -2.172502,4.8394 -4.839002,4.8394 h -21.7765 c -9.3397,0 -16.9375,7.5975 -16.9375,16.9372 0,6.1548 3.3006,11.5517 8.2238,14.5176 -4.9232,2.966 -8.2238,8.3628 -8.2238,14.5177 0,4.515 1.7616,8.76881 4.9652,11.9724 3.2035,3.20351 7.4574,4.9647 11.9723,4.9647 h 2.68 c -3.1436,3.07661 -5.0998,7.3622 -5.0998,12.0982 v 14.5177 c 0,1.33561 1.0843,2.41951 2.4198,2.41951 1.3357,0 2.419501,-1.0839 2.419501,-2.41951 v -14.5177 c 0,-6.6684 5.429801,-12.0982 12.098298,-12.0982 h 7.258701 7.4525 c 1.335601,0 2.419501,-1.0838 2.419501,-2.4194 0,-1.33569 -1.0839,-2.4195 -2.419501,-2.4195 H 63.09793 55.839229 41.32143 c -3.222899,0 -6.2622,-1.2536 -8.5511,-3.5474 -2.289,-2.2938 -3.547,-5.3279 -3.547,-8.5508 0,-6.6685 5.4297,-12.0982 12.0981,-12.0982 h 41.1332 5.129601 c 1.335501,0 2.4198,-1.0839 2.4198,-2.4195 0,-1.3356 -1.084299,-2.4194 -2.4198,-2.4194 H 82.45463 41.32143 c -6.6684,0 -12.0981,-5.4298 -12.0981,-12.0982 0,-6.6685 5.4297,-12.0982 12.0981,-12.0982 h 21.7765 c 5.337702,0 9.6784,-4.3407 9.6784,-9.6784 v -16.9371 c 0,-1.3356 -1.0839,-2.4199 -2.419501,-2.4199 z"
       style="fill:#fef5b4;fill-opacity:1;stroke-width:5.64444447" />
  </g>
</svg>
